/vscmnt/brussel_pixiu_data/_data_brussel/112/vsc11236/PredSimResults/SUBJ06opt3D/trackIG/worker_05.mot
version=1
nRows=4
nColumns=50
inDegrees=yes
endheader
                time	         pelvis_tilt	         pelvis_list	     pelvis_rotation	           pelvis_tx	           pelvis_ty	           pelvis_tz	       hip_flexion_r	     hip_adduction_r	      hip_rotation_r	        knee_angle_r	       ankle_angle_r	         mtp_angle_r	       hip_flexion_l	     hip_adduction_l	      hip_rotation_l	        knee_angle_l	       ankle_angle_l	         mtp_angle_l	    lumbar_extension	      lumbar_bending	     lumbar_rotation	 ercspn_r/activation	 intobl_r/activation	 extobl_r/activation	    abd_r/activation	    add_r/activation	hamstrings_r/activation	bifemsh_r/activation	glut_max_r/activation	iliopsoas_r/activation	rect_fem_r/activation	  vasti_r/activation	gastroc_r/activation	 soleus_r/activation	tib_ant_r/activation	 ercspn_l/activation	 intobl_l/activation	 extobl_l/activation	    abd_l/activation	    add_l/activation	hamstrings_l/activation	bifemsh_l/activation	glut_max_l/activation	iliopsoas_l/activation	rect_fem_l/activation	  vasti_l/activation	gastroc_l/activation	 soleus_l/activation	tib_ant_l/activation	
          1.29171061	         -3.79770509	         -2.42695867	          5.87974793	          1.29171061	          0.93906380	         -0.01197525	         28.24004075	          0.06754720	        -10.11990017	         -9.36338248	         -0.86947755	          0.22060870	        -10.92999396	         -3.18314614	         -8.97015306	        -11.96470771	          8.53231505	         31.99190092	         -5.48752796	          0.99075877	         -7.89173446	          0.18773409	          0.18831589	          0.00999999	          0.00999999	          0.32070595	          0.04075708	          0.01000000	          0.01438097	          0.12074665	          0.01320454	          0.08638726	          0.00999999	          0.00999999	          0.52014473	          0.11376481	          0.00999999	          0.00999999	          0.07816009	          0.00999999	          0.00999999	          0.18021415	          0.01542859	          0.26939072	          0.02181285	          0.00999999	          0.21341545	          0.33482380	          0.01794875	
          1.30462772	         -3.87384262	         -2.37651608	          5.83323554	          1.30798477	          0.93751670	         -0.01098474	         27.83880233	          0.17969583	        -10.08251295	        -10.04624567	         -1.31925083	          0.20114324	        -11.38895708	         -3.33457470	         -9.47147769	        -12.75950936	          7.56388319	         33.72351052	         -5.10075505	          1.34573819	         -8.34051748	          0.16002940	          0.16744602	          0.00999999	          0.00999999	          0.26389359	          0.04228151	          0.00999999	          0.01183342	          0.09935664	          0.01086538	          0.10909866	          0.01476916	          0.01476916	          0.52718099	          0.12222900	          0.00999999	          0.00999999	          0.06431420	          0.00999999	          0.00999999	          0.15688675	          0.01269545	          0.22314733	          0.01794875	          0.00999999	          0.17864233	          0.31224630	          0.01476916	
          1.31754483	         -3.93367494	         -2.35307030	          5.75190464	          1.32461251	          0.93621858	         -0.00993074	         27.23641008	          0.29647861	        -10.07209265	        -10.65501900	         -1.58524203	          0.18815721	        -11.72924452	         -3.54421642	         -9.97374657	        -13.82131782	          6.45585598	         35.47257026	         -4.69502013	          1.74774830	         -8.74248020	          0.13168054	          0.13778332	          0.00999999	          0.03388335	          0.21714542	          0.05933227	          0.01215284	          0.00999999	          0.08175583	          0.00999999	          0.11259902	          0.01215284	          0.01215284	          0.58255008	          0.11487717	          0.00999999	          0.00999999	          0.05292108	          0.00999999	          0.00999999	          0.17147387	          0.01044648	          0.28437437	          0.01476917	          0.00999999	          0.14699623	          0.28633371	          0.01215284	
          1.33046193	         -3.98126296	         -2.35823176	          5.62646306	          1.34127754	          0.93532726	         -0.00875155	         26.55782930	          0.43808256	        -10.21755127	        -11.14810001	         -1.88491157	          0.15904730	        -11.82398466	         -3.83250024	        -10.47882509	        -15.33262356	          5.18666491	         37.23809779	         -4.30783592	          2.18969324	         -9.08347011	          0.13167518	          0.11337531	          0.00999999	          0.08555844	          0.17867858	          0.06208686	          0.00999999	          0.06573642	          0.06727296	          0.00999999	          0.13690558	          0.00999999	          0.00999999	          0.61164610	          0.15769842	          0.00999999	          0.00999999	          0.04354623	          0.00999999	          0.00999999	          0.14559096	          0.00999999	          0.23615003	          0.01215284	          0.00999999	          0.12095617	          0.24921345	          0.00999999	
